<svg width="32" height="32" viewBox="0 0 32 32" fill="none" xmlns="http://www.w3.org/2000/svg">
<path d="M15.4249 9.9651C15.7799 9.6501 15.9199 9.1551 15.7349 8.7151C15.6199 8.4501 15.4949 8.1901 15.3549 7.9401L15.1999 7.6701C15.0499 7.4201 14.8849 7.1751 14.7099 6.9401C14.4249 6.5601 13.9249 6.4351 13.4749 6.5851L12.0649 7.0501C11.5299 6.6101 10.9149 6.2501 10.2549 6.0051L9.94995 4.5551C9.85495 4.0901 9.49495 3.7201 9.02495 3.6651C8.69495 3.6201 8.35995 3.6001 8.01995 3.6001H7.98495C7.64495 3.6001 7.30995 3.6201 6.97995 3.6601C6.50995 3.7151 6.14995 4.0901 6.05495 4.5501L5.74995 6.0051C5.08495 6.2551 4.47495 6.6101 3.93995 7.0501L2.52495 6.5901C2.07495 6.4401 1.57495 6.5651 1.28995 6.9451C1.11495 7.1801 0.949948 7.4251 0.794948 7.6751L0.644948 7.9401C0.504948 8.1901 0.379948 8.4501 0.264948 8.7201C0.0799476 9.1551 0.219948 9.6501 0.574948 9.9701L1.68495 10.9601C1.62995 11.2951 1.59995 11.6451 1.59995 12.0001C1.59995 12.3551 1.62995 12.7051 1.68495 13.0451L0.574948 14.0351C0.219948 14.3501 0.0799476 14.8451 0.264948 15.2851C0.379948 15.5501 0.504948 15.8101 0.644948 16.0651L0.794948 16.3251C0.944948 16.5801 1.10995 16.8201 1.28995 17.0551C1.57495 17.4351 2.07495 17.5601 2.52495 17.4101L3.93495 16.9451C4.46995 17.3851 5.08495 17.7451 5.74495 17.9901L6.04995 19.4451C6.14495 19.9101 6.50495 20.2801 6.97495 20.3351C7.30995 20.3751 7.64995 20.3951 7.99495 20.3951C8.33995 20.3951 8.67995 20.3751 9.01495 20.3351C9.48495 20.2801 9.84495 19.9051 9.93995 19.4451L10.2449 17.9901C10.9099 17.7401 11.5199 17.3851 12.0549 16.9451L13.4649 17.4101C13.9149 17.5601 14.4149 17.4351 14.6999 17.0551C14.8749 16.8201 15.0399 16.5801 15.1899 16.3251L15.3449 16.0551C15.4849 15.8051 15.6099 15.5451 15.7249 15.2801C15.9099 14.8451 15.7699 14.3501 15.4149 14.0301L14.3049 13.0401C14.3599 12.7001 14.3899 12.3501 14.3899 11.9951C14.3899 11.6401 14.3599 11.2901 14.3049 10.9501L15.4149 9.9601L15.4249 9.9651ZM5.59995 12.0001C5.59995 11.3636 5.8528 10.7531 6.30289 10.303C6.75298 9.85295 7.36343 9.6001 7.99995 9.6001C8.63647 9.6001 9.24692 9.85295 9.697 10.303C10.1471 10.7531 10.3999 11.3636 10.3999 12.0001C10.3999 12.6366 10.1471 13.2471 9.697 13.6972C9.24692 14.1472 8.63647 14.4001 7.99995 14.4001C7.36343 14.4001 6.75298 14.1472 6.30289 13.6972C5.8528 13.2471 5.59995 12.6366 5.59995 12.0001ZM25.2349 28.2251C25.5499 28.5801 26.0449 28.7201 26.4849 28.5351C26.7499 28.4201 27.0099 28.2951 27.2599 28.1551L27.5299 28.0001C27.7799 27.8501 28.0249 27.6851 28.2599 27.5101C28.6399 27.2251 28.7649 26.7251 28.6149 26.2751L28.1499 24.8651C28.5899 24.3301 28.9499 23.7151 29.1949 23.0551L30.6499 22.7501C31.1149 22.6551 31.4849 22.2951 31.5399 21.8251C31.5799 21.4901 31.5999 21.1501 31.5999 20.8051C31.5999 20.4601 31.5799 20.1201 31.5399 19.7851C31.4849 19.3151 31.1099 18.9551 30.6499 18.8601L29.1949 18.5501C28.9449 17.8851 28.5899 17.2751 28.1499 16.7401L28.6149 15.3301C28.7649 14.8801 28.6399 14.3801 28.2599 14.0951C28.0249 13.9201 27.7799 13.7551 27.5299 13.6001L27.2649 13.4501C27.0149 13.3101 26.7549 13.1851 26.4849 13.0701C26.0499 12.8851 25.5549 13.0251 25.2349 13.3801L24.2449 14.4901C23.9049 14.4351 23.5549 14.4051 23.1999 14.4051C22.8449 14.4051 22.4949 14.4351 22.1549 14.4901L21.1649 13.3801C20.8499 13.0251 20.3549 12.8851 19.9149 13.0701C19.6499 13.1851 19.3899 13.3101 19.1349 13.4501L18.8749 13.6001C18.6199 13.7501 18.3799 13.9151 18.1449 14.0951C17.7649 14.3801 17.6399 14.8801 17.7899 15.3301L18.2549 16.7401C17.8149 17.2751 17.4549 17.8901 17.2099 18.5501L15.7549 18.8501C15.2899 18.9451 14.9199 19.3051 14.8649 19.7751C14.8249 20.1101 14.8049 20.4501 14.8049 20.7951C14.8049 21.1401 14.8249 21.4801 14.8649 21.8151C14.9199 22.2851 15.2949 22.6451 15.7549 22.7401L17.2099 23.0451C17.4599 23.7101 17.8149 24.3201 18.2549 24.8551L17.7899 26.2651C17.6399 26.7151 17.7649 27.2151 18.1449 27.5001C18.3799 27.6751 18.6199 27.8401 18.8749 27.9901L19.1449 28.1451C19.3949 28.2851 19.6549 28.4101 19.9199 28.5251C20.3549 28.7101 20.8499 28.5701 21.1699 28.2151L22.1599 27.1051C22.4999 27.1601 22.8499 27.1901 23.2049 27.1901C23.5599 27.1901 23.9099 27.1601 24.2499 27.1051L25.2399 28.2151L25.2349 28.2251ZM23.1999 18.4001C23.5151 18.4001 23.8272 18.4622 24.1184 18.5828C24.4096 18.7034 24.6741 18.8802 24.897 19.103C25.1199 19.3259 25.2966 19.5905 25.4173 19.8817C25.5379 20.1728 25.5999 20.4849 25.5999 20.8001C25.5999 21.1153 25.5379 21.4274 25.4173 21.7185C25.2966 22.0097 25.1199 22.2743 24.897 22.4972C24.6741 22.72 24.4096 22.8968 24.1184 23.0174C23.8272 23.138 23.5151 23.2001 23.1999 23.2001C22.8848 23.2001 22.5727 23.138 22.2815 23.0174C21.9903 22.8968 21.7258 22.72 21.5029 22.4972C21.28 22.2743 21.1032 22.0097 20.9826 21.7185C20.862 21.4274 20.7999 21.1153 20.7999 20.8001C20.7999 20.4849 20.862 20.1728 20.9826 19.8817C21.1032 19.5905 21.28 19.3259 21.5029 19.103C21.7258 18.8802 21.9903 18.7034 22.2815 18.5828C22.5727 18.4622 22.8848 18.4001 23.1999 18.4001Z" fill="black"/>
</svg>
